<?xml version="1.0" encoding="UTF-8" standalone="no"?>
<!-- Created with Inkscape (http://www.inkscape.org/) -->

<svg
   width="196.76369mm"
   height="174.59302mm"
   viewBox="0 0 196.76369 174.59302"
   version="1.1"
   id="svg1"
   xml:space="preserve"
   xmlns="http://www.w3.org/2000/svg"
   xmlns:svg="http://www.w3.org/2000/svg"><defs
     id="defs1" /><g
     id="layer1"
     transform="translate(-10.919285,-106.25697)"><path
       style="fill:#000000;stroke-width:0.993982"
       d="m 188.56679,280.22977 c -4.07615,-1.03343 -6.85969,-2.3827 -8.25801,-4.00291 l -0.54777,-0.63471 -0.71709,0.49441 c -2.99709,2.06631 -6.08327,2.29617 -15.35494,1.1437 -42.14223,-5.23833 -63.63451,-5.34019 -109.886972,-0.52081 -7.615966,0.79358 -10.268435,0.6116 -13.074603,-0.89693 l -1.323088,-0.71128 -0.944748,0.5363 c -2.036219,1.15587 -6.601184,2.75452 -10.22226,3.57981 -0.907134,0.20674 -2.205986,0.52228 -2.886337,0.70117 -0.68035,0.17888 -2.628628,0.41495 -4.329505,0.52461 l -3.092504,0.19931 -1.322989,-0.73412 c -2.545301,-1.41237 -4.531371,-4.65146 -5.312614,-8.66436 l -0.374073,-1.92145 v -34.90708 -34.9071 l 0.780589,-2.57001 c 0.958579,-3.156 3.231598,-6.28526 4.565468,-6.28526 0.275127,0 0.318107,-3.6633 0.369008,-31.45099 l 0.05761,-31.45101 0.478431,-1.92789 c 1.393356,-5.61461 3.264453,-7.21395 10.860751,-9.28331 18.670052,-5.08599 37.245421,-8.03545 61.850078,-9.82076 12.955438,-0.94005 40.052488,-0.37958 52.263308,1.08097 21.83477,2.61169 49.47452,8.05608 53.83163,10.60354 2.21478,1.29492 4.26738,4.46302 5.0781,7.8378 l 0.36266,1.50965 0.0569,31.27694 0.0569,31.27696 1.51619,1.13991 c 1.87783,1.41177 3.05542,3.28183 3.9058,6.20249 l 0.6497,2.23133 0.0695,10.12202 c 0.0965,14.06607 -0.38959,16.88998 -3.40624,19.78443 l -0.86275,0.82783 -0.0734,19.35476 -0.0733,19.35478 -0.4612,2.25035 c -1.59866,7.80041 -6.30727,10.66522 -14.22849,8.65691 z M 24.765323,260.40755 c 6.107505,-1.62077 8.290024,-2.7508 9.908706,-5.13041 3.958743,-5.8197 3.693364,-23.47649 -0.404678,-26.92484 l -0.607174,-0.51092 0.852189,-1.18695 c 3.749607,-5.22258 3.224116,-22.29262 -0.813957,-26.44059 -2.259197,-2.32069 -5.314531,-2.35123 -13.555151,-0.13548 l -1.494711,0.40186 v 30.68569 30.68567 l 1.18546,-0.22525 c 0.652002,-0.12387 2.870195,-0.67234 4.929316,-1.21878 z m 1.307233,-19.85037 v -6.54927 l 0.463877,-0.20229 c 2.67419,-1.16615 3.780856,0.91179 3.613456,6.78483 -0.139228,4.88463 -0.648279,6.01005 -2.866542,6.33734 l -1.210791,0.17866 z m 0,-23.51064 c 0,-7.28865 -0.07719,-6.93578 1.517242,-6.93578 3.062761,0 3.214325,12.2558 0.159893,12.92931 -0.525553,0.11588 -1.117907,0.28367 -1.316342,0.37285 l -0.360793,0.16214 z m 169.056884,20.23787 c 0,-13.2849 0.0696,-24.15142 0.15462,-24.14783 0.0851,0.003 1.08239,0.22523 2.21629,0.49257 1.13392,0.26734 2.27042,0.49085 2.52556,0.49669 l 0.46387,0.0107 v -6.01878 c 0,-3.31035 -0.0758,-6.09498 -0.1683,-6.18807 -0.33653,-0.33844 -16.20297,-3.89606 -17.37587,-3.89606 h -0.59852 v 5.98668 5.98668 l 2.11322,0.40957 c 1.16226,0.22527 2.32134,0.49118 2.57573,0.59095 l 0.46254,0.18136 0.0529,24.34645 0.0529,24.34643 2.50785,0.58741 c 2.96655,0.69484 3.69226,0.84423 4.45028,0.91601 l 0.56696,0.0536 z m -18.49682,19.47688 c 3.34675,-2.09558 4.83629,-6.12221 5.04289,-13.63236 0.26322,-9.56685 -1.33307,-14.21762 -7.08716,-20.64852 -4.6622,-5.21061 -5.92979,-8.59006 -4.93108,-13.1467 1.06499,-4.85912 3.89664,-3.44496 4.39545,2.19516 l 0.15622,1.7663 2.67745,0.56014 c 1.4726,0.30807 2.89895,0.57286 3.16968,0.58839 l 0.49222,0.0283 -0.14271,-2.93543 c -0.54343,-11.17758 -3.84888,-16.18138 -10.42851,-15.78671 -5.29436,0.31757 -8.03335,5.67145 -8.03335,15.70284 0,8.78353 1.68864,13.102 7.62101,19.48992 4.3658,4.70102 5.11538,6.37051 4.89432,10.90092 -0.35838,7.3449 -5.09437,5.38797 -5.09932,-2.10706 -6.4e-4,-0.95781 -0.0759,-1.81666 -0.16733,-1.90859 -0.21578,-0.21701 -5.77027,-1.21437 -6.76298,-1.21437 h -0.76198 l 0.12696,3.94184 c 0.33506,10.40504 2.53006,14.91599 8.19817,16.8482 1.62843,0.55513 5.29403,0.20058 6.64005,-0.64224 z M 52.763966,255.89237 c 5.993871,-2.54041 7.740323,-9.59662 7.736776,-31.25899 -0.0038,-22.80513 -1.986088,-29.52695 -8.90804,-30.20564 -6.399438,-0.62746 -10.091091,5.00684 -11.211768,17.11168 -0.472047,5.09876 -0.318511,31.01165 0.2012,33.95758 1.61078,9.1306 6.109079,12.96923 12.181832,10.39537 z m -3.539163,-11.86752 c -2.236447,-2.27754 -2.553976,-32.68647 -0.38047,-36.43652 1.380629,-2.38208 3.199481,-1.30761 3.869877,2.28607 0.447044,2.3964 0.369955,28.69421 -0.09121,31.1158 -0.605352,3.1787 -2.017986,4.44022 -3.398196,3.03465 z M 159.46256,224.70402 c 0,-16.69839 -0.0696,-30.36131 -0.15462,-30.36206 -0.0851,-7.5e-4 -1.67928,-0.22964 -3.54275,-0.50863 -1.86347,-0.27899 -3.46434,-0.38323 -3.5575,-0.23166 -0.0932,0.15158 -0.14566,13.85407 -0.11671,30.44997 l 0.0527,30.17439 2.78326,0.36825 c 1.53079,0.20254 3.17755,0.39125 3.65946,0.41935 l 0.87621,0.051 z m -93.08437,29.0743 2.474004,-0.22324 0.412334,-5.09296 c 0.491965,-6.07653 0.05982,-5.34347 3.31815,-5.62874 l 2.69965,-0.23638 0.429975,5.09214 c 0.236487,2.80067 0.471575,5.15983 0.52242,5.24256 0.114478,0.18628 7.813338,-0.50828 7.941255,-0.71642 0.09239,-0.15038 -0.870846,-8.46294 -3.362907,-29.02091 -0.726923,-5.99666 -1.841807,-15.28099 -2.477523,-20.63186 -0.635713,-5.35086 -1.204364,-9.99758 -1.263666,-10.32603 l -0.107822,-0.59719 -1.89118,0.19888 c -4.250046,0.44695 -7.442912,0.85963 -7.511278,0.97088 -0.03992,0.0649 -0.254975,1.75768 -0.477903,3.7616 -1.519956,13.66307 -3.760099,33.97481 -4.212749,38.1977 -0.296669,2.76768 -0.904563,8.19229 -1.350873,12.05468 -0.446312,3.86237 -0.811476,7.14939 -0.811476,7.30446 0,0.15509 0.719007,0.1902 1.597793,0.078 0.878787,-0.11218 2.711096,-0.30441 4.071796,-0.42721 z m 4.498182,-22.90448 c 0.06731,-0.62572 0.458274,-5.51456 0.868785,-10.86412 0.410512,-5.34955 0.772705,-9.76929 0.804872,-9.82163 0.03216,-0.0523 0.170911,1.53171 0.308322,3.52014 0.137409,1.98841 0.512993,6.78555 0.834629,10.66031 0.321635,3.87476 0.570113,7.06946 0.552173,7.09933 -0.01794,0.03 -0.810794,0.16441 -1.761899,0.29897 l -1.729281,0.24465 z m 77.815048,-7.42786 -0.0526,-30.61232 -2.98943,-0.38977 c -1.64418,-0.21438 -3.29094,-0.40309 -3.65947,-0.41935 l -0.67004,-0.0294 v 11.95917 11.95917 l -1.70087,-0.21545 c -0.93548,-0.11855 -2.09518,-0.21637 -2.57709,-0.21748 l -0.87621,-0.002 v -11.88682 -11.88685 l -0.36079,-0.16779 c -0.19844,-0.0923 -1.91478,-0.27176 -3.8141,-0.39881 l -3.4533,-0.23099 v 30.53687 30.53687 l 2.2163,0.20498 c 1.21896,0.11275 2.9353,0.28861 3.8141,0.3908 l 1.59779,0.18585 v -12.12712 -12.12713 l 2.11321,0.21245 c 1.16226,0.1169 2.32195,0.28279 2.57708,0.36875 l 0.46388,0.15631 v 11.87077 11.87079 l 2.2163,0.24083 c 1.8328,0.19917 4.37809,0.59519 5.05217,0.78607 0.0856,0.0242 0.13203,-13.73146 0.10313,-30.56823 z m -26.81193,25.41242 c 0.14077,-1.66062 0.39475,-4.45348 0.56441,-6.20633 0.16966,-1.75287 0.5953,-6.28184 0.94589,-10.06432 0.35057,-3.78251 1.00558,-10.80238 1.45556,-15.59971 1.42974,-15.24252 2.24707,-24.46305 2.24805,-25.36065 l 7.8e-4,-0.87083 -3.84035,-0.23268 c -2.11218,-0.12796 -3.86529,-0.18898 -3.89578,-0.13561 -0.1589,0.27812 -1.88892,25.5911 -2.09231,30.61378 -0.0822,2.0305 -0.19495,3.08423 -0.28713,2.68383 -0.24841,-1.07914 -0.9509,-7.73894 -1.94504,-18.43955 -0.51425,-5.53537 -1.03746,-11.15881 -1.16269,-12.49653 l -0.22767,-2.43221 h -2.85734 -2.85736 l -0.10407,0.75483 c -0.0571,0.41516 -0.57722,6.11407 -1.15555,12.66427 -1.63641,18.53464 -1.78607,20.15147 -1.87922,20.30305 -0.0799,0.12994 -0.42429,-4.49637 -1.93597,-26.00325 -0.29169,-4.14994 -0.54661,-7.54884 -0.5665,-7.55313 -0.0199,-0.003 -1.68291,0.0446 -3.695614,0.10871 l -3.659463,0.11653 4.6e-5,0.72711 c 2.5e-5,0.39991 0.281689,4.04835 0.625923,8.10761 1.67805,19.78798 2.352653,27.82175 3.295923,39.25087 0.563444,6.82696 1.024824,12.52588 1.025284,12.66426 4.6e-4,0.13838 1.809951,0.25162 4.021091,0.25162 2.90101,0 4.02024,-0.10779 4.02024,-0.38727 0,-0.21297 0.47506,-5.68545 1.05568,-12.16104 0.58062,-6.4756 1.2163,-13.58539 1.41263,-15.79954 0.29073,-3.27887 0.38226,-3.8079 0.4933,-2.85155 0.1891,1.62842 2.0951,22.07871 2.52384,27.07929 l 0.35146,4.09912 2.28726,0.11264 c 1.25799,0.0619 3.02781,0.1043 3.93292,0.0943 l 1.64565,-0.0183 z m -30.690963,-19.84555 3.125283,-0.22012 v -5.84493 -5.84491 l -4.793381,0.23705 c -2.63636,0.13036 -4.862962,0.30215 -4.948007,0.38171 -0.08505,0.0795 -0.154624,2.70218 -0.154624,5.82799 v 5.68332 h 1.822724 c 1.002496,0 3.229099,-0.099 4.948005,-0.22011 z m -59.910255,-43.25734 3.040962,-0.61296 v -10.62241 -10.62241 l 2.010128,-0.39694 c 1.105571,-0.21831 2.172484,-0.47356 2.37092,-0.56723 l 0.360791,-0.17033 v 10.75789 10.75787 l 0.463876,-0.003 c 0.255132,-9e-4 1.948277,-0.30224 3.762546,-0.66763 1.814269,-0.36538 3.368252,-0.66582 3.453296,-0.66764 0.206669,-0.003 0.199814,-55.60752 -0.0069,-55.81538 -0.08883,-0.0893 -1.828362,0.19945 -3.86563,0.64173 -2.037268,0.44228 -3.727318,0.80839 -3.755666,0.81358 -0.02835,0.005 -0.05155,4.81694 -0.05155,10.69278 v 10.68337 l -2.081976,0.41059 c -1.145086,0.22584 -2.212001,0.49179 -2.370919,0.59102 -0.244128,0.15245 -0.288945,-1.49442 -0.288945,-10.61741 v -10.7978 l -0.56696,0.17315 c -0.311826,0.0952 -1.981779,0.51132 -3.711004,0.92465 l -3.144046,0.75151 v 27.66147 27.66147 l 0.670043,-0.17333 c 0.368524,-0.0953 2.038475,-0.44917 3.711004,-0.7863 z m 159.315488,-26.9728 c 0,-15.72996 -0.0786,-27.54857 -0.18385,-27.65445 -0.10103,-0.10163 -1.46957,-0.48357 -3.04097,-0.84861 -1.57141,-0.36503 -3.20501,-0.74541 -3.63021,-0.84528 l -0.77313,-0.1816 -0.0166,12.33277 -0.0166,12.33275 -0.51734,-2.51607 c -0.58554,-2.8477 -4.24061,-19.90557 -4.71528,-22.00565 l -0.3105,-1.37379 -3.03611,-0.56371 c -1.66985,-0.31003 -3.38401,-0.63714 -3.80924,-0.7269 l -0.77312,-0.16321 v 28.35182 c 0,24.12479 0.0432,28.35178 0.28964,28.35178 0.40804,0 5.65094,0.96487 6.47242,1.19115 l 0.68013,0.18733 -0.0617,-14.78813 c -0.034,-8.13346 0.004,-14.51995 0.0834,-14.1922 0.0798,0.32776 1.40176,6.86097 2.93779,14.51823 1.53602,7.65728 2.87068,14.11843 2.96592,14.35812 0.1084,0.2728 1.36144,0.68074 3.35029,1.09068 1.74745,0.36018 3.31634,0.70362 3.48643,0.76321 0.17008,0.0595 0.37883,0.0505 0.46387,-0.0201 0.0851,-0.0706 0.15462,-12.4898 0.15462,-27.59806 z M 168.24661,182.35 c -0.0599,-0.32289 -0.33665,-2.62511 -0.61502,-5.11603 -6.18526,-55.34683 -5.75297,-51.86837 -6.47426,-52.09648 -1.85721,-0.58733 -9.16181,-1.33321 -9.3072,-0.95036 -0.0859,0.22644 -0.81714,5.80088 -1.6247,12.38762 -3.43456,28.01286 -5.23476,43.05335 -5.1655,43.1572 0.0984,0.14755 8.04875,1.24521 8.12009,1.12109 0.0305,-0.0532 0.21357,-2.13458 0.40679,-4.62552 0.42151,-5.43455 -0.0225,-4.77776 3.04294,-4.50062 l 2.57373,0.23268 0.34806,4.39847 c 0.46667,5.89737 0.37683,5.56672 1.52271,5.60409 0.53097,0.0173 1.98593,0.2214 3.23324,0.45348 3.48981,0.64937 4.06997,0.6397 3.93912,-0.0656 z m -12.15784,-21.468 -1.20903,-0.12223 0.10496,-0.90468 c 0.0576,-0.49756 0.40318,-4.67879 0.76763,-9.29161 0.36442,-4.61281 0.71159,-8.61339 0.77147,-8.89014 0.0598,-0.27677 0.40884,3.29257 0.77549,7.93185 0.36666,4.63931 0.73074,9.13051 0.80907,9.98046 l 0.14242,1.54536 -0.47651,-0.0634 c -0.26208,-0.0349 -1.02057,-0.11844 -1.68554,-0.18563 z m -102.872988,21.00945 2.918611,-0.4021 0.109564,-0.89142 c 0.06026,-0.49029 0.2237,-2.48915 0.363197,-4.4419 l 0.253632,-3.55048 1.563114,-0.20858 c 0.859712,-0.11473 2.082321,-0.29317 2.716905,-0.39656 l 1.15379,-0.18799 0.370316,4.38817 0.370314,4.38816 0.640648,0.005 c 2.794012,0.0198 7.54702,-0.82002 7.452646,-1.31686 -0.151634,-0.79833 -3.181748,-25.19087 -5.069404,-40.80894 -1.918332,-15.87188 -1.501023,-14.30423 -3.707379,-13.92705 -0.96042,0.16418 -3.070613,0.48979 -4.689316,0.72355 l -2.943096,0.42505 -0.09468,0.69552 c -0.207531,1.5246 -1.855109,16.11405 -3.904953,34.57875 -1.188043,10.70173 -2.224178,19.97088 -2.302524,20.5981 l -0.142445,1.14042 1.011224,-0.20414 c 0.556173,-0.1123 2.324597,-0.3851 3.929834,-0.60624 z m 4.927224,-21.66841 c 0.06727,-0.69992 0.428184,-5.19767 0.802028,-9.995 0.373844,-4.79733 0.727787,-8.49597 0.786541,-8.2192 0.05875,0.27678 0.309948,3.33212 0.558209,6.78968 0.248261,3.45756 0.572889,7.60909 0.721394,9.22564 0.148507,1.61653 0.257148,2.95657 0.241426,2.97783 -0.01572,0.0214 -0.749333,0.14106 -1.630247,0.26618 l -1.60166,0.22748 z m 20.792195,19.02395 1.256174,1.6e-4 -0.0701,-9.89674 -0.0701,-9.89673 0.791684,8e-5 0.791682,7e-5 1.199672,9.29501 c 0.659817,5.11224 1.253372,9.43638 1.319008,9.6092 0.107722,0.28362 7.671003,0.0195 7.851481,-0.27414 0.03818,-0.0622 -0.736287,-5.26064 -1.721033,-11.55225 l -1.790444,-11.43931 0.736608,-1.32674 c 3.787673,-6.82208 2.937381,-24.87012 -1.364991,-28.97293 -2.242017,-2.13799 -10.24294,-2.88629 -14.734687,-1.37805 l -0.463877,0.15574 v 28.05754 28.05752 l 2.506373,-0.21928 c 1.378504,-0.1206 3.071649,-0.21923 3.762547,-0.21915 z m 1.153091,-37.74011 v -7.29217 l 1.328415,0.13765 c 2.142532,0.22198 2.586456,1.39214 2.586456,6.8178 0,5.53891 -0.601562,7.23889 -2.646767,7.47963 l -1.268104,0.14926 z m 63.705578,9.89534 v -28.1801 l -0.36079,-0.0199 c -0.19843,-0.0115 -2.40186,-0.21504 -4.89646,-0.4535 -5.41586,-0.51774 -5.00413,-1.59823 -8.04248,21.10528 -0.69458,5.19013 -0.75469,5.39275 -0.94547,3.18702 -0.0877,-1.01481 -0.58304,-4.78893 -1.10063,-8.38693 -0.51758,-3.59799 -1.26949,-8.82032 -1.67091,-11.60519 l -0.72984,-5.06338 -4.56016,-0.2074 c -2.50807,-0.11415 -4.63825,-0.12887 -4.73372,-0.0328 -0.0956,0.096 -0.17357,12.68646 -0.17357,27.97881 v 27.80427 l 0.87621,0.187 c 0.48191,0.10281 2.15743,0.22532 3.72339,0.27215 l 2.84718,0.0852 -0.0639,-13.9786 c -0.0352,-7.68823 -0.0369,-13.93446 -0.004,-13.88055 0.033,0.0538 0.37141,2.34372 0.75202,5.08844 3.33639,24.06109 2.55702,20.88909 5.19676,21.15078 l 2.05799,0.20402 0.34881,-2.1436 c 1.35127,-8.3045 3.45514,-21.60693 3.68166,-23.27868 0.24319,-1.7947 0.27856,-0.40715 0.32642,12.80217 l 0.0537,14.81504 1.69875,0.20125 c 0.93431,0.11068 2.06984,0.24969 2.52342,0.30891 0.45356,0.0591 1.35812,0.13306 2.01012,0.16407 l 1.18547,0.0564 z m -38.70696,25.79838 c 7.12116,-1.51106 8.97244,-6.669 9.16685,-25.53992 0.27994,-27.17503 -3.3286,-32.86415 -18.754491,-29.56783 l -0.979292,0.20928 v 27.81154 27.81155 l 4.48413,-0.19269 c 2.466273,-0.10602 5.203543,-0.34536 6.082803,-0.53193 z m -3.14492,-26.9633 v -16.68872 l 1.53636,0.12629 c 3.01225,0.2475 3.2287,1.1734 3.35993,14.3726 0.15964,16.05643 -0.26188,18.27327 -3.55626,18.70358 l -1.34003,0.17503 z"
       id="path1" /><path
       style="fill:#5bffff;fill-opacity:1;stroke-width:1.79377"
       d="m 231.1169,953.21113 c 0.609,-4.34317 6.45414,-56.32833 12.98918,-115.52259 6.53505,-59.19427 12.01096,-107.77241 12.16868,-107.95143 0.99097,-1.12474 32.07109,-4.31037 32.99914,-3.38232 1.81682,1.81681 28.63052,224.531 27.20417,225.95734 -0.46224,0.46224 -6.87974,1.09485 -14.26112,1.40581 l -13.42069,0.56536 -1.61765,-19.37803 -1.61766,-19.37803 -10.04182,1.19639 c -5.523,0.65799 -10.69764,1.80054 -11.4992,2.53898 -0.80156,0.73846 -2.20759,9.2721 -3.1245,18.96367 -0.99729,10.54114 -2.57387,18.19668 -3.92391,19.05376 -1.24124,0.78802 -5.18288,1.44511 -8.7592,1.46021 -3.57632,0.0151 -9.13497,0.55397 -12.35255,1.1975 l -5.85015,1.17002 z m 49.46664,-78.10018 c 0.41586,-0.36719 -0.20973,-14.18421 -1.3902,-30.70449 -2.58566,-36.18554 -4.08268,-51.03074 -5.04862,-50.0648 -0.39668,0.39668 -1.86626,14.34798 -3.26573,31.00289 -1.39947,16.6549 -3.0123,35.3682 -3.58407,41.58511 l -1.03958,11.30346 6.78605,-1.22727 c 3.73232,-0.675 7.12629,-1.5277 7.54215,-1.8949 z"
       id="path2"
       transform="scale(0.26458333)" /><path
       style="fill:#5bffff;fill-opacity:1;stroke-width:1.79377"
       d="m 434.54094,950.35641 c -4.14784,-1.08406 -4.02346,-0.26559 -9.69353,-63.78776 -2.70792,-30.33706 -5.57001,-55.15829 -6.3602,-55.15829 -0.79019,0 -1.48191,1.81619 -1.53715,4.03597 -0.0552,2.21979 -2.29232,28.65541 -4.97129,58.74583 l -4.87084,54.70985 -14.32111,0.51389 -14.32111,0.5139 -9.46443,-113.31508 c -5.20543,-62.32329 -9.23717,-113.5045 -8.95941,-113.73604 0.27776,-0.23153 6.20901,-0.96393 13.18056,-1.62755 l 12.67554,-1.20658 4.18198,60.61576 c 2.30009,33.33867 4.81868,62.23015 5.59686,64.20329 0.92292,2.34016 1.46278,2.652 1.55265,0.89688 0.0758,-1.47985 2.53769,-28.52087 5.47092,-60.09114 2.93322,-31.57028 5.34397,-59.21669 5.35722,-61.43648 0.0222,-3.71484 0.84474,-4.03589 10.33823,-4.03494 l 10.31415,0.001 5.88334,62.23646 c 5.44182,57.56579 6.43956,65.24373 8.20957,63.1756 0.35181,-0.41107 2.45415,-28.59561 4.67186,-62.63231 2.21771,-34.0367 4.31515,-62.18495 4.66097,-62.55166 0.34583,-0.36671 6.76794,-0.0915 14.27136,0.61167 l 13.64258,1.27841 -1.00926,9.25404 c -0.55509,5.08973 -5.05773,54.05334 -10.00586,108.80804 -4.94813,54.75469 -9.42261,102.17737 -9.9433,105.38373 -0.94446,5.81599 -0.97079,5.82925 -11.17956,5.62166 -5.62808,-0.11444 -11.64491,-0.57713 -13.37074,-1.02817 z"
       id="path3"
       transform="scale(0.26458333)" /><path
       style="fill:#5bffff;fill-opacity:1;stroke-width:1.79377"
       d="m 320.18716,844.89778 c 0,-23.8237 -1.72564,-22.02852 21.97781,-22.86336 l 13.90585,-0.48977 -0.004,20.83293 -0.004,20.83293 -8.3223,1.1407 c -4.57727,0.62738 -12.64921,1.1407 -17.93766,1.1407 h -9.61535 z"
       id="path4"
       transform="scale(0.26458333)" /><path
       style="fill:#5bffff;fill-opacity:1;stroke-width:1.79377"
       d="m 177.49387,967.09271 c -7.49845,-3.38333 -14.09224,-11.69293 -19.03836,-23.99246 -4.04825,-10.06677 -4.17402,-12.12049 -4.72372,-77.13382 -0.6455,-76.3437 0.65998,-89.67985 10.74321,-109.74678 7.43784,-14.80228 14.40925,-19.88159 27.27475,-19.87216 16.61861,0.0122 24.68968,8.54531 30.90378,32.67304 2.26338,8.78813 3.09205,23.80597 3.76586,68.24835 1.15415,76.12353 -1.72173,100.87277 -13.63202,117.31447 -8.40294,11.5999 -24.59199,17.33792 -35.2935,12.50936 z m 20.20333,-49.13316 c 2.45524,-5.71356 2.91422,-15.77665 3.04756,-66.81777 0.14201,-54.35828 -0.14688,-60.64732 -3.02817,-65.92089 -6.78886,-12.42554 -14.66061,-5.25613 -17.3997,15.84726 -3.65744,28.17885 -1.41233,106.09726 3.42354,118.81656 2.9048,7.64018 10.28372,6.62237 13.95677,-1.92516 z"
       id="path5"
       transform="scale(0.26458333)" /><path
       style="fill:#5bffff;fill-opacity:1;stroke-width:1.79377"
       d="M 70.853741,873.71624 V 758.45337 l 12.867297,-3.10569 c 29.431942,-7.10378 39.559372,-5.366 46.354762,7.95407 11.54006,22.62038 11.93005,69.17245 0.74875,89.37596 l -4.32459,7.81412 3.59985,4.57647 c 7.03205,8.93979 9.81759,22.87855 9.76331,48.85528 -0.0737,35.27906 -6.03052,51.86178 -21.74643,60.53828 -4.01944,2.21905 -16.29791,6.39323 -27.285505,9.27595 l -19.977444,5.2413 z m 39.326339,57.09786 c 3.43946,-3.22584 5.68971,-23.40428 3.8839,-34.82773 -1.77266,-11.2138 -5.23604,-15.26628 -11.66752,-13.65208 l -4.636234,1.16362 v 26.0096 26.0096 l 4.932854,-1.15375 c 2.71307,-0.63457 6.08222,-2.23173 7.487,-3.54926 z m -6.17169,-86.83597 c 2.75883,-1.04891 5.75947,-4.34685 7.29184,-8.01433 3.1091,-7.44112 3.24911,-26.28342 0.26044,-35.04746 -1.80881,-5.30414 -2.97586,-6.27818 -7.52226,-6.27818 h -5.381302 l -0.497692,25.56116 c -0.273731,14.05864 -0.124481,25.56116 0.331669,25.56116 0.456147,0 2.938935,-0.80206 5.517305,-1.78235 z"
       id="path6"
       transform="scale(0.26458333)" /><path
       style="fill:#5bffff;fill-opacity:1;stroke-width:1.79377"
       d="m 551.58292,957.59124 c -2.46642,-0.37838 -7.10779,-1.11221 -10.31415,-1.63078 l -5.82974,-0.94284 v -44.55364 -44.55366 l -4.03597,-1.08159 c -2.21978,-0.59488 -7.06295,-1.09263 -10.76259,-1.1061 l -6.72662,-0.0245 v 44.84414 44.84414 l -6.72662,-0.0198 c -3.69965,-0.0109 -9.75361,-0.52007 -13.45325,-1.13158 l -6.72662,-1.11183 V 836.72705 722.33085 l 11.21104,0.87176 c 6.16607,0.47946 12.22003,1.18478 13.45324,1.56737 1.71552,0.53222 2.24221,11.24254 2.24221,45.59605 v 44.90044 h 5.15707 c 2.83639,0 7.67956,0.50449 10.7626,1.1211 l 5.60551,1.12111 v -45.06837 -45.06836 h 4.23406 c 2.32873,0 7.97909,0.51332 12.55636,1.1407 l 8.3223,1.1407 v 114.55718 c 0,90.58019 -0.4693,114.50606 -2.2422,114.31291 -1.23322,-0.13435 -4.2602,-0.55384 -6.72663,-0.9322 z"
       id="path7"
       transform="scale(0.26458333)" /><path
       style="fill:#5bffff;fill-opacity:1;stroke-width:1.79377"
       d="m 582.73285,961.07312 -5.62227,-0.70798 -1.3574,-67.61649 c -1.24196,-61.86587 -0.24412,-157.61297 1.66245,-159.51954 0.43539,-0.43539 6.10187,-0.22294 12.59218,0.47211 l 11.80055,1.26373 V 848.6601 962.35525 l -6.72662,-0.28708 c -3.69964,-0.15788 -9.25664,-0.60566 -12.34889,-0.99505 z"
       id="path8"
       transform="scale(0.26458333)" /><path
       style="fill:#5bffff;fill-opacity:1;stroke-width:1.79377"
       d="m 638.56517,969.7725 c -16.64774,-7.56291 -23.69583,-22.71538 -25.47467,-54.76727 l -1.08482,-19.54665 11.16635,1.26333 c 6.1415,0.69483 12.21577,1.66602 13.49839,2.15821 1.43201,0.54951 2.6901,5.35567 3.25981,12.45314 1.08577,13.52635 4.90069,20.52797 11.18493,20.52797 6.16665,0 8.61197,-5.72543 8.78562,-20.57052 0.18416,-15.74308 -2.1606,-20.71166 -18.6505,-39.52062 -22.62276,-25.80432 -30.53998,-49.36411 -27.87427,-82.94726 1.52981,-19.27278 5.23575,-31.33395 11.99216,-39.02907 13.22851,-15.06644 36.76627,-10.80567 46.58057,8.43194 7.41278,14.53025 12.21844,53.36071 6.32399,51.0988 -1.35372,-0.51947 -6.02472,-1.47886 -10.37998,-2.13197 l -7.91867,-1.18748 -2.03561,-10.71133 c -2.27434,-11.96754 -4.70014,-15.90256 -9.80337,-15.90256 -8.31279,0 -11.49978,24.95335 -5.01294,39.25004 1.96127,4.32253 9.58635,15.26811 16.94462,24.32352 15.76528,19.40143 21.53891,31.0991 24.39904,49.43367 2.48054,15.9012 1.15441,41.78783 -2.8213,55.07323 -6.49736,21.71185 -24.20167,30.87682 -43.07935,22.30088 z"
       id="path9"
       transform="scale(0.26458333)" /><path
       style="fill:#5bffff;fill-opacity:1;stroke-width:1.79377"
       d="M 721.54222,984.35216 709.4343,981.587 v -92.04478 -92.04478 l -6.72662,-1.86808 c -3.69965,-1.02744 -8.13921,-1.87257 -9.86571,-1.87808 -2.82133,-0.009 -3.13909,-2.27524 -3.13909,-22.38722 v -22.37723 l 5.82973,1.07178 c 3.20636,0.58948 17.89171,3.79808 32.63413,7.13022 14.74241,3.33214 27.05212,6.05844 27.35492,6.05844 0.3028,0 0.55054,10.17743 0.55054,22.61652 0,22.53421 -0.0147,22.61314 -4.03597,21.68546 -2.21978,-0.51209 -6.65935,-1.47093 -9.86571,-2.13075 l -5.82974,-1.19967 v 91.62457 c 0,50.39352 -0.60539,91.54568 -1.34532,91.44924 -0.73993,-0.0964 -6.79389,-1.41965 -13.45324,-2.94048 z"
       id="path10"
       transform="scale(0.26458333)" /><path
       style="fill:#5bffff;fill-opacity:1;stroke-width:1.79377"
       d="m 706.29153,700.91909 c -6.73684,-1.49998 -11.84351,-3.70055 -12.78952,-5.51127 -0.86615,-1.65787 -6.1886,-26.01934 -11.82767,-54.13662 -5.63906,-28.11727 -10.9827,-51.88915 -11.87475,-52.82639 -0.96848,-1.01756 -1.6219,20.39389 -1.6219,53.14707 v 54.85114 l -8.52039,-1.65715 c -4.68621,-0.91143 -10.33657,-2.03975 -12.55636,-2.50736 l -4.03597,-0.85021 V 585.43584 479.44338 l 4.48565,1.12583 c 2.4671,0.6192 8.18255,1.63254 12.70099,2.25186 6.09939,0.83602 8.57936,2.09765 9.62866,4.89837 0.77732,2.07479 5.7572,24.2677 11.0664,49.31758 l 9.65309,45.54524 0.89688,-44.95014 c 0.49329,-24.72258 1.43965,-45.49165 2.10304,-46.15348 1.26816,-1.26519 19.43064,2.28558 23.01171,4.49881 2.61948,1.61893 4.49518,149.05177 2.34079,183.98969 l -1.44594,23.44893 z"
       id="path11"
       transform="scale(0.26458333)" /><path
       style="fill:#5bffff;fill-opacity:1;stroke-width:1.79377"
       d="m 615.5347,687.82175 c -4.78265,-0.80254 -9.01074,-1.77419 -9.39577,-2.15921 -0.38501,-0.38501 -1.3151,-8.7144 -2.06686,-18.50972 l -1.36683,-17.80967 -9.52041,-0.9564 c -5.58784,-0.56134 -10.13065,-0.19087 -10.99774,0.89688 -0.81253,1.01931 -2.05602,8.99602 -2.7633,17.72605 l -1.28597,15.87274 -8.34459,-1.16472 c -4.58953,-0.64059 -11.05073,-1.63294 -14.35823,-2.20521 l -6.01363,-1.04047 1.22679,-11.87378 c 2.05945,-19.93293 22.41698,-185.47278 23.57967,-191.74114 1.00269,-5.40572 1.53569,-5.80347 6.71136,-5.00826 3.09219,0.47509 10.06868,1.33508 15.50332,1.91108 5.43464,0.57599 10.77508,1.61892 11.86764,2.31762 1.09257,0.69869 3.29497,11.76387 4.89422,24.5893 4.24623,34.05315 20.89177,183.49566 20.89177,187.56485 0,3.86346 -3.319,4.14778 -18.56144,1.59006 z m -17.32287,-84.66806 c -0.0139,-8.9846 -5.26008,-66.4066 -6.1482,-67.29472 -1.25688,-1.25688 -2.56887,9.37544 -4.59642,37.24914 -1.04057,14.30528 -2.25529,28.22939 -2.69938,30.94246 -0.76759,4.6894 -0.45554,4.93285 6.32278,4.93285 6.85035,0 7.12987,-0.22882 7.12122,-5.82973 z"
       id="path12"
       transform="scale(0.26458333)" /><path
       style="fill:#5bffff;fill-opacity:1;stroke-width:1.79377"
       d="m 520.64047,675.86173 -4.93286,-0.74726 -0.1214,-54.14227 c -0.0708,-31.59298 -0.75852,-52.64813 -1.65117,-50.55474 -0.84137,1.97315 -4.44079,22.55661 -7.9987,45.74103 -8.54996,55.71418 -7.01192,50.54253 -14.83476,49.88168 -8.13506,-0.68725 -7.58294,1.2239 -14.82429,-51.31355 -3.08702,-22.39689 -6.32056,-42.33601 -7.18565,-44.30916 -0.95055,-2.16806 -1.62093,17.17221 -1.6943,48.88012 l -0.1214,52.46764 h -9.719 c -17.01453,0 -15.39372,11.28409 -15.39372,-107.17082 V 459.60117 l 9.41727,1.13114 c 5.1795,0.62213 12.73896,1.13817 16.7988,1.14674 l 7.38153,0.0156 6.9445,50.15985 c 3.81947,27.58792 7.46123,49.58397 8.0928,48.88012 0.63157,-0.70386 3.6555,-19.03802 6.71985,-40.74258 6.31577,-44.73415 8.03418,-52.1548 12.64957,-54.62488 1.94588,-1.04141 9.0016,-1.23169 17.41072,-0.46955 l 14.13895,1.28146 0.46278,105.38373 0.46278,105.38373 -8.53472,-0.26876 c -4.6941,-0.14783 -10.75451,-0.60504 -13.46758,-1.01603 z"
       id="path13"
       transform="scale(0.26458333)" /><path
       style="fill:#5bffff;fill-opacity:1;stroke-width:1.79377"
       d="m 358.29023,567.35173 0.46289,-104.4135 6.27818,-1.36951 c 10.88691,-2.37484 31.2536,-1.94809 37.81226,0.79229 13.08861,5.46877 20.94739,19.46913 24.91045,44.37777 3.11182,19.55847 4.15848,67.54917 2.09298,95.96646 -3.85226,52.99988 -11.32831,64.04723 -45.58594,67.36231 -9.09651,0.88025 -18.76539,1.62233 -21.48641,1.64906 l -4.94731,0.0486 z m 36.51443,62.36785 c 7.47049,-2.13112 8.57792,-8.41454 9.32663,-52.91814 1.04807,-62.29659 -0.41898,-70.15392 -13.53883,-72.51248 l -5.82974,-1.04802 v 64.6516 c 0,71.1067 -0.99578,64.97578 10.04194,61.82704 z"
       id="path14"
       transform="scale(0.26458333)" /><path
       style="fill:#5bffff;fill-opacity:1;stroke-width:1.79377"
       d="m 275.33885,572.74095 0.004,-105.30245 6.72662,-1.4266 c 17.20411,-3.64871 42.53222,0.13438 49.84247,7.44463 14.41045,14.41044 17.79511,77.16957 5.61022,104.02586 l -4.01926,8.85868 6.61751,42.26364 c 3.63963,23.24499 6.24627,42.86902 5.79254,43.60895 -0.45373,0.73993 -6.71656,1.34533 -13.91739,1.34533 H 318.9033 l -3.8776,-29.1487 c -5.95326,-44.75186 -5.48159,-42.60193 -9.34633,-42.60193 -3.26801,0 -3.42987,1.77088 -3.42987,37.52736 v 37.52736 l -13.45741,0.59017 -13.45742,0.59015 z m 38.33531,-13.10751 c 3.71149,-3.71149 5.32838,-16.253 4.32655,-33.55908 -0.90167,-15.57581 -3.15914,-19.33558 -11.60963,-19.33558 h -4.14158 v 27.80337 27.80337 h 4.35629 c 2.39596,0 5.57673,-1.22044 7.06837,-2.71208 z"
       id="path15"
       transform="scale(0.26458333)" /><path
       style="fill:#5bffff;fill-opacity:1;stroke-width:1.79377"
       d="m 183.86097,687.62826 c 0,-4.44827 23.71099,-210.57968 24.28918,-211.15787 0.38677,-0.38677 7.73189,-1.82872 16.3225,-3.20435 11.73025,-1.87839 15.93831,-1.98496 16.90056,-0.42801 1.46927,2.37733 1.8914,5.53679 15.9134,119.10462 5.72507,46.36884 9.83395,84.94813 9.13085,85.73174 -1.49934,1.671 -26.89642,4.64145 -27.06262,3.16526 -0.0621,-0.55137 -0.75098,-7.67809 -1.5309,-15.83716 -0.77993,-8.15907 -1.78176,-15.19838 -2.2263,-15.64291 -1.03083,-1.03084 -19.17063,1.79805 -20.5824,3.2098 -0.58283,0.58285 -1.59281,7.91585 -2.24439,16.29557 -0.65158,8.37972 -1.5707,15.57306 -2.04249,15.98518 -1.73461,1.5153 -26.86739,4.11406 -26.86739,2.77813 z m 46.25023,-78.36728 c 1.86929,-1.18609 1.78484,-7.84895 -0.44844,-35.38156 -1.51328,-18.65616 -2.80258,-35.13911 -2.86511,-36.62878 -0.0747,-1.77971 -0.60524,-1.47828 -1.54713,0.87904 -0.78839,1.97314 -2.39054,16.90624 -3.56033,33.18467 -1.16979,16.27842 -2.5557,31.81691 -3.0798,34.52998 -0.85922,4.44781 -0.45385,4.93016 4.12246,4.90539 2.79146,-0.0151 6.11172,-0.68504 7.37835,-1.48874 z"
       id="path16"
       transform="scale(0.26458333)" /><path
       style="fill:#5bffff;fill-opacity:1;stroke-width:1.79377"
       d="m 103.57539,600.57714 0.46302,-103.47586 12.01254,-3.03141 12.01254,-3.03141 0.54382,39.09531 c 0.2991,21.50243 1.05102,39.60085 1.67095,40.21872 0.61992,0.61786 4.85769,0.18403 9.41727,-0.96409 l 8.29013,-2.08748 v -40.1126 -40.11261 l 4.03598,-0.91654 c 13.2906,-3.01823 20.44959,-4.45065 22.43652,-4.48925 1.79289,-0.0348 2.16153,21.41434 1.79377,104.36973 l -0.4629,104.41358 -10.76259,2.2372 c -18.82937,3.91403 -17.04078,7.91906 -17.04078,-38.1579 0,-36.30148 -0.29844,-40.43711 -2.84746,-39.45896 -1.5661,0.60097 -5.99077,1.59531 -9.8326,2.20964 l -6.98515,1.11697 -0.48155,40.51176 -0.48154,40.51176 -10.7626,2.23638 c -5.91942,1.23 -11.37454,2.27161 -12.12248,2.31466 -0.74795,0.043 -1.15154,-46.48588 -0.89689,-103.3976 z"
       id="path17"
       transform="scale(0.26458333)" /><path
       style="fill:#002c2f;fill-opacity:1;stroke-width:1.79377"
       d="m 720.19689,1059.864 c -10.89081,-2.0396 -27.24906,-8.4585 -33.97758,-13.3327 l -7.31985,-5.3024 -7.60309,3.9431 c -10.04376,5.2088 -25.89238,5.0003 -76.66307,-1.0087 -68.49508,-8.1068 -100.18979,-10.3288 -161.75276,-11.3397 -68.0498,-1.1174 -105.73481,0.5615 -192.13987,8.5599 -67.60796,6.2584 -70.26093,6.3138 -82.35192,1.7196 l -9.36681,-3.5591 -11.72917,4.7218 c -18.74346,7.5455 -41.079082,13.2002 -56.743426,14.3659 l -14.520231,1.0805 -7.238955,-6.54 c -3.981424,-3.597 -9.15164,-10.771 -11.489368,-15.9422 l -4.250415,-9.4023 V 887.91398 748.00026 l 5.098388,-10.38284 c 2.804113,-5.71056 7.445482,-12.11812 10.314152,-14.23902 l 5.215764,-3.85618 V 601.63085 c 0,-111.52707 0.187348,-118.49334 3.470409,-129.04184 6.274051,-20.15856 13.06736,-24.39793 56.996752,-35.56888 64.46483,-16.39298 134.6468,-26.97997 216.66963,-32.68474 34.56277,-2.40388 139.19834,-1.2593 173.99526,1.90329 62.53332,5.68345 173.30534,25.09444 210.80183,36.93958 17.48892,5.52474 21.83446,9.00293 28.5112,22.82053 l 5.38428,11.14286 1.24046,121.77416 1.24044,121.77417 6.83062,6.17106 c 4.18018,3.77652 8.371,10.11909 10.80041,16.34577 3.69639,9.47406 3.97419,13.13937 4.03398,53.22512 0.072,48.24386 -1.43542,58.53988 -9.99823,68.29239 l -5.28429,6.01848 -0.89888,74.05803 c -0.49438,40.73191 -1.68363,78.19497 -2.64275,83.25137 -4.3684,23.0289 -22.50527,35.9559 -44.63291,31.8118 z M 95.96646,984.46458 c 31.83075,-8.96141 39.34121,-16.55271 44.27167,-44.74825 4.86425,-27.81689 0.63235,-66.95044 -8.09402,-74.84769 -3.22345,-2.91718 -3.19564,-3.2586 0.94753,-11.6304 5.89717,-11.91603 8.36559,-29.99303 7.14455,-52.3219 -1.2653,-23.13835 -4.95586,-35.92697 -12.85538,-44.54684 -5.72185,-6.24363 -6.59872,-6.57548 -17.37484,-6.57548 -6.24187,0 -18.008216,1.54463 -26.147428,3.43252 l -14.798566,3.43249 v 117.1534 117.15338 l 5.829738,-1.10435 c 3.206356,-0.60739 12.690892,-3.03598 21.076746,-5.39688 z m 642.16809,-86.87681 c 0,-82.99481 0.26958,-91.57051 2.84746,-90.58129 1.5661,0.60099 6.00567,1.59769 9.86571,2.21494 l 7.01825,1.12227 V 785.8986 c 0,-13.44481 -0.20505,-24.4451 -0.45565,-24.4451 -0.25063,0 -14.98193,-3.21819 -32.73623,-7.15155 -17.75431,-3.93335 -33.31299,-7.16213 -34.57485,-7.17506 -1.77347,-0.0182 -2.18064,5.35025 -1.79376,23.65003 l 0.50051,23.67353 8.96883,1.90006 8.96883,1.90006 0.46448,92.59955 0.46446,92.59954 12.98878,2.70565 c 7.14381,1.4881 13.99776,2.79581 15.23097,2.90602 1.76713,0.15794 2.24221,-19.22335 2.24221,-91.47356 z m -75.03729,75.47649 c 14.44842,-4.01303 22.24275,-20.19748 24.12895,-50.10228 2.19946,-34.87159 -3.55252,-54.04393 -23.72614,-79.08335 -21.21282,-26.32929 -26.21354,-40.71592 -19.62975,-56.47314 4.38278,-10.48948 9.25748,-6.82365 12.50877,9.40674 2.20692,11.01698 2.38486,11.14861 18.52522,13.70273 l 7.6235,1.20638 -0.0135,-10.33535 c -0.0325,-24.78586 -7.71003,-48.78406 -18.06684,-56.47277 -11.95253,-8.87336 -30.38487,-7.46125 -40.33612,3.09016 -15.2146,16.13218 -17.59241,69.52185 -4.32063,97.0119 2.89808,6.00286 11.40263,18.07332 18.89897,26.82324 7.49635,8.74991 14.95463,18.368 16.57398,21.3735 3.53882,6.56806 3.88778,26.80195 0.56786,32.92769 -5.21209,9.61712 -14.55257,-2.44169 -14.55751,-18.79412 l -0.003,-9.26862 -9.05711,-1.94242 c -4.98142,-1.06831 -11.84257,-1.94239 -15.24701,-1.94239 h -6.18989 l 0.0135,13.0048 c 0.0262,25.1379 5.68706,46.72598 14.87265,56.7179 8.66396,9.42449 23.44041,13.0361 37.43388,9.1494 z m -462.01704,-6.03451 c 23.22985,-10.81661 28.55394,-36.28404 27.12709,-129.76086 -0.65713,-43.0509 -1.5628,-59.96991 -3.7047,-69.20766 -5.65921,-24.40764 -14.75395,-33.51421 -33.47063,-33.51421 -13.72235,0 -21.36396,5.40427 -28.50932,20.16226 -9.90215,20.45185 -11.21339,34.22344 -10.58542,111.1756 0.54673,66.99747 0.66153,68.91845 4.72192,79.00914 9.74594,24.22017 24.33326,31.48928 44.42106,22.13573 z M 603.60213,849.45388 c 0,-63.08232 -0.62142,-115.07919 -1.38092,-115.54858 -0.75949,-0.4694 -7.1201,-1.41898 -14.13469,-2.11017 l -12.75378,-1.25673 -1.32981,34.55605 c -0.73139,19.00584 -0.73365,71.12055 -0.005,115.81048 l 1.32477,81.2544 5.61935,0.70777 c 3.09064,0.38928 9.45352,0.83695 14.13973,0.99484 l 8.52039,0.28707 z M 255.16316,959.50791 c 3.20635,-0.49651 5.8871,-1.87518 5.95722,-3.06368 0.9642,-16.34394 3.23288,-34.01686 4.5198,-35.20916 0.89699,-0.83103 5.37542,-2.04491 9.95207,-2.6975 l 8.32115,-1.18654 1.27008,17.74488 c 0.69854,9.75968 1.88523,18.74023 2.6371,19.95677 1.01075,1.63543 5.17291,1.87993 15.96993,0.93809 l 14.60289,-1.27382 -0.0654,-6.49501 c -0.1035,-10.28589 -25.96666,-222.36721 -27.27734,-223.67789 -0.98787,-0.98787 -35.42036,2.15709 -36.51777,3.3354 -0.34365,0.36899 -25.82781,230.70007 -25.82781,233.43706 0,1.19923 12.59344,0.33838 26.45805,-1.8086 z M 562.34552,844.21053 V 727.85959 l -8.3223,-1.14071 c -4.57728,-0.62737 -11.03484,-1.14069 -14.35013,-1.14069 h -6.02782 v 45.05335 45.05334 l -4.03597,-1.08158 c -2.21979,-0.59489 -6.25576,-1.09264 -8.96883,-1.10611 l -4.93286,-0.0245 v -44.80997 -44.80997 l -4.03597,-0.81598 c -2.21979,-0.44878 -9.08094,-1.25899 -15.24701,-1.80044 l -11.21103,-0.98445 v 116.56726 c 0,109.78551 0.18262,116.57263 3.13909,116.65938 1.7265,0.0507 8.58765,0.69795 15.247,1.43842 l 12.10792,1.34633 v -45.3857 -45.38567 h 6.13147 c 12.43632,0 11.80619,-2.49355 11.80619,46.71991 v 44.54231 l 8.52038,1.12079 c 4.68622,0.61643 9.73118,1.37946 11.21104,1.6956 9.70102,2.07244 8.96883,11.4902 8.96883,-115.35999 z M 460.82055,947.55668 c 0.48524,-3.20635 1.29403,-10.6729 1.79732,-16.59233 0.5033,-5.91943 5.02047,-55.4602 10.03813,-110.09061 5.01768,-54.63042 8.87727,-99.57381 8.57687,-99.87419 -0.3004,-0.3004 -7.59957,-1.11849 -16.22037,-1.81798 l -15.67422,-1.2718 -0.0473,6.07642 c -0.106,13.61087 -6.91045,106.01104 -7.87803,106.97862 -0.57391,0.57391 -1.09527,-1.71445 -1.15855,-5.08522 -0.0633,-3.37079 -2.29276,-28.73015 -4.95435,-56.35414 l -4.83926,-50.22544 -12.08642,-0.5304 -12.08645,-0.5304 -0.11186,5.9117 c -0.2249,11.88601 -10.22868,111.55232 -10.58587,105.46568 -0.20262,-3.453 -2.1163,-29.68682 -4.25261,-58.29738 l -3.8842,-52.0192 -14.35012,0.64703 c -7.89257,0.35586 -14.61214,0.88694 -14.93238,1.18017 -0.32023,0.29323 3.71574,52.26766 8.96882,115.49872 l 9.55109,114.96556 15.66128,5.9e-4 c 14.79697,5.4e-4 15.70759,-0.22216 16.5007,-4.0354 0.46168,-2.21978 2.68504,-26.06743 4.9408,-52.99476 2.30062,-27.46291 4.64686,-47.15221 5.34379,-44.84414 0.68332,2.26305 2.95385,24.29451 5.04561,48.95879 2.09179,24.66428 4.16922,46.60436 4.61653,48.75575 0.9273,4.45993 4.08232,5.36026 20.00908,5.70983 l 11.12974,0.24427 z m -112.38158,-81.43333 9.41727,-1.13115 v -22.65551 -22.65553 l -13.90168,0.53759 c -7.64593,0.29567 -16.52507,0.95331 -19.73143,1.46145 l -5.82973,0.9239 v 22.34078 22.34079 l 10.31415,-0.0156 c 5.67278,-0.009 14.55192,-0.5246 19.73142,-1.14673 z M 113.90412,703.99463 c 4.43957,-0.97043 9.88813,-2.17686 12.10791,-2.68096 l 4.03598,-0.91654 v -40.10134 -40.10133 l 5.60551,-1.1211 c 11.1868,-2.23737 10.53838,-4.59651 10.53838,38.34173 0,44.8783 -1.92585,40.82685 17.79072,37.42701 6.49353,-1.11972 12.39944,-2.93591 13.12427,-4.03597 1.57636,-2.39249 1.85152,-204.05157 0.28399,-208.13648 -1.35511,-3.53136 -3.22234,-3.53165 -18.73697,-0.003 l -12.46201,2.83442 v 40.18178 40.18177 l -4.93286,1.08088 c -2.71307,0.59448 -5.87505,1.36608 -7.02661,1.71467 -3.67613,1.1128 -4.18442,-4.02993 -4.18442,-42.33675 0,-20.6373 -0.2018,-37.48848 -0.44844,-37.44705 -0.24665,0.0414 -6.50241,1.5336 -13.90169,3.31596 l -13.45324,3.24064 -0.46278,105.20685 c -0.36769,83.58982 8.8e-4,105.19786 1.79377,105.16301 1.2411,-0.0241 5.88892,-0.83783 10.32849,-1.80828 z M 721.12739,659.6573 c 1.18191,-40.87663 -0.23298,-163.51165 -1.90641,-165.23565 -0.3511,-0.36171 -6.73271,-2.07436 -14.18135,-3.80589 l -13.54299,-3.14824 -0.23157,11.87784 c -0.12738,6.53281 -0.73277,23.98576 -1.34533,38.78432 l -1.11375,26.90649 -8.56471,-40.25458 c -4.71061,-22.14002 -8.90481,-40.59466 -9.32046,-41.01032 -0.99435,-0.99435 -22.47688,-5.58875 -26.51053,-5.66972 -2.95539,-0.0593 -3.13909,6.22781 -3.13909,107.43574 v 107.49876 l 10.31416,2.07094 c 5.67278,1.13902 12.13034,2.49454 14.35012,3.01229 l 4.03597,0.94135 0.15147,-50.86834 0.15145,-50.86834 10.38342,49.84824 c 5.71089,27.41652 10.94619,50.42157 11.63401,51.12232 1.19544,1.2179 21.20462,7.01684 25.46035,7.37878 1.44398,0.12282 2.42975,-13.31659 3.37524,-46.01599 z m -520.52544,28.95263 c 12.09591,-1.42164 13.67289,-3.36575 13.93184,-17.17523 0.30164,-16.08547 1.52935,-18.34468 10.66259,-19.62114 4.39624,-0.6144 8.2992,-0.84648 8.67327,-0.51571 0.52186,0.46145 3.06734,20.97913 3.70757,29.88464 0.14422,2.00593 17.92117,1.6058 25.79491,-0.58059 6.66604,-1.85104 6.83358,-2.09607 5.81937,-8.51039 -1.06611,-6.74248 -11.61519,-91.29636 -19.8464,-159.07455 -5.01394,-41.28606 -5.54116,-43.96188 -8.65295,-43.91594 -3.16574,0.0467 -33.94511,5.18105 -34.48858,5.75305 -0.52495,0.5525 -24.18811,210.76492 -24.15648,214.59483 0.0136,1.64183 1.36107,2.1001 4.13104,1.40489 2.261,-0.56747 8.75172,-1.57722 14.42382,-2.24386 z m 435.28796,-2.05142 c 0,-4.31384 -19.65173,-180.93849 -22.64816,-203.55583 -0.61858,-4.669 -2.03976,-9.24854 -3.15817,-10.17675 -2.17179,-1.80242 -33.4211,-5.74122 -35.47556,-4.47149 -0.67314,0.41602 -1.6906,2.96694 -2.26102,5.66869 -1.16451,5.5157 -21.61299,173.62355 -23.53195,193.45723 l -1.23416,12.75594 13.73377,2.04263 c 7.55356,1.12345 14.83625,2.04265 16.18373,2.04265 1.81007,0 2.78536,-4.47335 3.73403,-17.12689 l 1.28406,-17.12689 9.18069,0.53456 c 6.52215,0.37975 9.28522,1.31371 9.5416,3.2252 0.1985,1.47986 0.87968,9.70289 1.51376,18.27342 l 1.15287,15.58276 9.26564,1.69337 c 5.09609,0.93134 12.29261,1.78925 15.99225,1.90643 6.19563,0.19628 6.72662,-0.1767 6.72662,-4.72503 z m -344.25629,-7.61823 h 12.40965 V 641.2712 c 0,-22.72492 0.67939,-37.66907 1.71249,-37.66907 0.94185,0 2.1468,2.62338 2.67763,5.82973 1.53386,9.26493 8.16624,60.84378 8.16624,63.50747 0,1.81681 3.4366,2.40662 13.90168,2.38596 7.64593,-0.0151 14.89256,-0.65695 16.10362,-1.4263 1.69954,-1.07966 0.70874,-11.11273 -4.34256,-43.97355 -6.41339,-41.72179 -6.48116,-42.70753 -3.38347,-49.20348 7.39133,-15.4998 10.32791,-50.5583 6.34724,-75.77694 -3.98259,-25.23071 -9.89687,-34.97449 -23.95949,-39.47332 -7.89591,-2.526 -30.84533,-3.17686 -40.99077,-1.16251 l -6.72662,1.33555 v 107.73657 c 0,97.5047 0.26945,107.63316 2.83736,106.64777 1.56054,-0.59885 8.42169,-1.0888 15.247,-1.0888 z M 544.40786,572.2454 V 465.55052 l -4.03597,-0.82943 c -8.70416,-1.78878 -29.25436,-2.77312 -31.12237,-1.49073 -5.49558,3.77273 -8.72425,17.49981 -14.34693,60.99764 -1.81727,14.05864 -3.93353,25.56116 -4.70279,25.56116 -0.76928,0 -1.38434,-1.81619 -1.36681,-4.03597 0.0175,-2.21979 -2.56823,-22.29085 -5.74612,-44.60236 l -5.77795,-40.56639 -17.04431,-1.01688 c -9.37438,-0.55928 -17.68575,-0.62044 -18.46974,-0.13591 -0.78398,0.48452 -1.42541,48.37143 -1.42541,106.41535 0,94.57884 0.29455,105.64742 2.83736,106.62319 1.56054,0.59885 8.01809,1.0888 14.35012,1.0888 h 11.51277 l 0.17405,-45.29259 0.17406,-45.29258 5.85905,39.46285 c 3.22248,21.70456 6.4593,40.87543 7.19291,42.60193 1.92683,4.53453 16.32725,4.47091 17.51664,-0.0774 0.46263,-1.76907 3.58375,-20.93994 6.93585,-42.60194 l 6.09469,-39.38546 0.47801,46.9749 0.478,46.9749 5.80018,0.72126 c 3.1901,0.39669 10.03794,0.85044 15.21744,1.00833 l 9.41727,0.28707 z m -142.34635,96.6965 c 6.47105,-1.78662 10.92683,-4.48366 14.91873,-9.03017 7.01856,-7.99372 8.66787,-12.11902 12.11402,-30.3 3.43953,-18.14615 4.06225,-105.21682 0.87869,-122.86282 -4.92975,-27.32493 -13.55156,-42.41569 -26.7155,-46.76018 -6.70149,-2.21169 -41.32126,-1.51252 -45.24713,0.9138 -1.36568,0.84404 -1.94785,32.84558 -1.94785,107.07391 v 105.87007 l 18.3861,-1.17856 c 10.11235,-0.64821 22.53818,-2.32494 27.61294,-3.72605 z"
       id="path18"
       transform="scale(0.26458333)" /><path
       style="fill:#002c2f;fill-opacity:1;stroke-width:0.896883"
       d="m 386.68921,628.7373 c -0.31964,-0.83297 -0.58116,-28.98231 -0.58116,-62.55409 V 505.1436 l 4.41593,0.52301 c 11.69363,1.38493 12.54615,5.61766 12.59464,62.53218 0.0388,45.50256 -1.20747,55.51749 -7.41455,59.58452 -3.4831,2.28222 -8.30919,2.79294 -9.01486,0.95399 z"
       id="path19"
       transform="scale(0.26458333)" /><path
       style="fill:#002c2f;fill-opacity:1;stroke-width:0.896883"
       d="m 302.69795,535.10794 v -27.02383 h 2.55681 c 4.72293,0 7.97701,1.7505 9.70276,5.21952 1.4242,2.86283 1.63568,5.56224 1.59363,20.34164 -0.053,18.6166 -0.83204,22.70195 -4.90541,25.72313 -1.24478,0.92324 -3.76726,1.92269 -5.60551,2.221 l -3.34228,0.54238 z"
       id="path20"
       transform="scale(0.26458333)" /><path
       style="fill:#002c2f;fill-opacity:1;stroke-width:0.896883"
       d="m 220.18222,607.52943 c -0.005,-4.21054 4.5876,-59.58229 5.12373,-61.77624 0.30136,-1.23322 1.68837,12.07089 3.08225,29.56468 1.39388,17.4938 2.2372,32.09931 1.87406,32.4567 -0.36314,0.35738 -2.77915,0.92848 -5.3689,1.26909 -4.53379,0.5963 -4.70872,0.54007 -4.71114,-1.51423 z"
       id="path21"
       transform="scale(0.26458333)" /><path
       style="fill:#002c2f;fill-opacity:1;stroke-width:0.896883"
       d="m 590.37311,607.87574 c -3.28536,-0.25906 -4.25555,-0.68383 -4.23989,-1.85633 0.0524,-3.92509 5.27433,-64.06606 5.59012,-64.38185 0.19764,-0.19764 1.56815,14.26893 3.04557,32.14794 2.50133,30.2698 2.56224,35.20105 0.42723,34.58782 -0.30956,-0.0889 -2.47993,-0.31283 -4.82303,-0.49758 z"
       id="path22"
       transform="scale(0.26458333)" /><path
       style="fill:#002c2f;fill-opacity:1;stroke-width:0.896883"
       d="m 188.22349,923.18874 c -2.65954,-1.28777 -3.72572,-4.05576 -5.23283,-13.58533 -2.21213,-13.98739 -3.15821,-32.20265 -3.16201,-60.87921 -0.005,-39.04739 1.94757,-59.22041 6.328,-65.37217 1.5613,-2.19263 2.47525,-2.66214 4.75158,-2.44096 2.45412,0.23845 3.16627,0.96947 5.5091,5.65515 l 2.69065,5.3813 v 58.74582 c 0,53.14648 -0.14779,59.22294 -1.55057,63.75147 -1.43856,4.64401 -5.04006,9.87328 -6.70277,9.73222 -0.39352,-0.0334 -1.57754,-0.47811 -2.63115,-0.98829 z"
       id="path23"
       transform="scale(0.26458333)" /><path
       style="fill:#002c2f;fill-opacity:1;stroke-width:0.896883"
       d="m 99.315138,908.96057 0.238853,-24.48543 2.504919,-0.83458 c 4.02291,-1.34034 6.67866,-0.13042 8.91943,4.06355 1.8888,3.53518 2.02712,4.88118 2.00319,19.49285 -0.0206,12.55877 -0.31926,16.35365 -1.49463,18.989 -1.7195,3.85535 -4.63566,5.99835 -9.16203,6.73287 l -3.248585,0.52718 z"
       id="path24"
       transform="scale(0.26458333)" /><path
       style="fill:#002c2f;fill-opacity:1;stroke-width:0.896883"
       d="m 99.117797,821.71443 c 0.0067,-12.42552 0.261157,-23.52117 0.565381,-24.65701 0.466672,-1.74233 1.056092,-2.02273 3.770652,-1.79376 6.49266,0.54764 9.57607,9.61005 8.93377,26.25716 -0.31663,8.20627 -0.77471,10.7469 -2.69132,14.92669 -2.06742,4.5087 -2.74413,5.18517 -6.45024,6.44796 l -4.14049,1.41081 z"
       id="path25"
       transform="scale(0.26458333)" /><path
       style="fill:#002c2f;fill-opacity:1;stroke-width:0.896883"
       d="m 268.24852,872.71228 c 0.24511,-1.99806 1.6364,-18.73156 3.09176,-37.18556 1.45536,-18.45399 2.76072,-33.66732 2.9008,-33.80739 0.14007,-0.14008 1.38443,14.75684 2.76523,33.10427 1.3808,18.34742 2.72293,34.81001 2.9825,36.58352 l 0.47195,3.22457 -6.32894,0.85672 -6.32894,0.85671 z"
       id="path26"
       transform="scale(0.26458333)" /></g></svg>
